<svg xmlns="http://www.w3.org/2000/svg" viewBox="0 0 128 128" role="img" aria-label="Gerador de Curriculo Inteligente">
  <defs>
    <linearGradient id="paper" x1="18" x2="110" y1="20" y2="112" gradientUnits="userSpaceOnUse">
      <stop stop-color="#f8fdff"/>
      <stop offset="1" stop-color="#d8f7fb"/>
    </linearGradient>
    <linearGradient id="brain" x1="32" x2="96" y1="36" y2="92" gradientUnits="userSpaceOnUse">
      <stop stop-color="#85e6cf"/>
      <stop offset="0.52" stop-color="#43d0cf"/>
      <stop offset="1" stop-color="#2aa7d6"/>
    </linearGradient>
    <filter id="shadow" x="-20%" y="-20%" width="140%" height="140%">
      <feDropShadow dx="0" dy="5" stdDeviation="4" flood-color="#064a75" flood-opacity=".28"/>
    </filter>
  </defs>
  <rect width="128" height="128" rx="28" fill="#061b2e"/>
  <g filter="url(#shadow)">
    <path d="M35 14h48l28 29v63a10 10 0 0 1-10 10H35a10 10 0 0 1-10-10V24a10 10 0 0 1 10-10Z" fill="url(#paper)" stroke="#0d6f99" stroke-width="5"/>
    <path d="M82 15v22a10 10 0 0 0 10 10h20" fill="#ecffff" stroke="#0d6f99" stroke-width="5" stroke-linejoin="round"/>
    <path d="M11 52h20m-20 23h20m-20 23h20" fill="none" stroke="#1aa5d6" stroke-width="6" stroke-linecap="round"/>
    <circle cx="11" cy="52" r="7" fill="#72d6e5" stroke="#075b8d" stroke-width="5"/>
    <circle cx="11" cy="75" r="7" fill="#72d6e5" stroke="#075b8d" stroke-width="5"/>
    <circle cx="11" cy="98" r="7" fill="#72d6e5" stroke="#075b8d" stroke-width="5"/>
    <path d="M37 67c-7-8-2-20 9-20 2-10 14-15 23-8 9-9 27-3 27 11 9 2 14 13 7 21 6 11-4 23-16 21-2 13-21 13-25 1-11 4-24-3-24-15-6-1-10-5-11-11Z" fill="url(#brain)" stroke="#074f82" stroke-width="5" stroke-linejoin="round"/>
    <path d="M65 41v46M77 44c-7 8-7 17 0 25m-28-8c9-2 15 1 18 8m21 6c-10-2-17 1-21 9" fill="none" stroke="#07537e" stroke-width="5" stroke-linecap="round"/>
    <circle cx="49" cy="76" r="5" fill="#d4fff5"/>
    <circle cx="92" cy="73" r="5" fill="#d4fff5"/>
    <path d="M42 28h15M42 104h32M42 94h55" fill="none" stroke="#59bde0" stroke-width="5" stroke-linecap="round"/>
  </g>
</svg>
