<svg xmlns="http://www.w3.org/2000/svg" viewBox="0 0 156 156" role="img" aria-label="Marca Gerador de Curriculo Inteligente">
  <defs>
    <linearGradient id="brain" x1="45" x2="125" y1="48" y2="120" gradientUnits="userSpaceOnUse">
      <stop stop-color="#5eead4"/>
      <stop offset=".52" stop-color="#22d3ee"/>
      <stop offset="1" stop-color="#2563eb"/>
    </linearGradient>
  </defs>
  <path d="M49 15h62l32 33v88a12 12 0 0 1-12 12H49a12 12 0 0 1-12-12V27a12 12 0 0 1 12-12Z" fill="none" stroke="#f8fbff" stroke-width="7"/>
  <path d="M110 16v24a13 13 0 0 0 13 13h20" fill="none" stroke="#f8fbff" stroke-width="7" stroke-linejoin="round"/>
  <path d="M13 63h31m-31 28h31m-31 28h31" fill="none" stroke="#e8f8ff" stroke-width="6" stroke-linecap="round"/>
  <circle cx="13" cy="63" r="6" fill="#071a3d" stroke="#e8f8ff" stroke-width="5"/>
  <circle cx="13" cy="91" r="6" fill="#071a3d" stroke="#e8f8ff" stroke-width="5"/>
  <circle cx="13" cy="119" r="6" fill="#071a3d" stroke="#e8f8ff" stroke-width="5"/>
  <path d="M54 89c-10-10-3-25 12-25 3-13 20-18 31-9 12-12 35-4 35 14 12 3 18 17 9 27 8 14-5 29-21 27-3 17-27 16-32 1-14 5-31-4-31-19-8-1-13-6-14-16Z" fill="url(#brain)" stroke="#073b73" stroke-width="6" stroke-linejoin="round"/>
  <path d="M89 57v57m16-54c-9 10-9 21 0 32m-36-9c12-3 20 1 24 11m28 7c-13-3-22 1-28 12" fill="none" stroke="#f5ffff" stroke-width="5" stroke-linecap="round" opacity=".9"/>
  <circle cx="72" cy="101" r="6" fill="#ccfbf1"/>
  <circle cx="128" cy="96" r="6" fill="#ccfbf1"/>
</svg>
